#!OML:ASF F:\VICON\USERDATA\INSTALL\rory3\rory3.ASF
:FULLY-SPECIFIED
:DEGREES
1698
root -1.30075 18.185 -2.74571 -2.26856 3.05009 5.37965
lowerback 14.9471 0.791925 -7.30052
upperback 2.4844 -0.273711 -2.57022
thorax -5.71819 -0.0140103 1.45111
lowerneck -11.3938 -1.423 -8.75292
upperneck 12.9271 -1.67431 8.6046
head 5.91934 -0.595332 4.04412
rclavicle 1.50082e-014 2.94201e-014
rhumerus -52.4922 12.0186 -90.3329
rradius 104.81
rwrist 5.9744
rhand -43.2756 14.8572
rfingers 7.12502
rthumb -16.1237 -14.4921
lclavicle 1.50082e-014 2.94201e-014
lhumerus -12.4986 -22.7896 80.6961
lradius 112.692
lwrist 15.8403
lhand -28.5847 10.1208
lfingers 7.12502
lthumb -1.95062 40.0916
rfemur -26.1095 7.57382 5.57688
rtibia 69.4005
rfoot -14.4505 -18.165
rtoes -5.85597
lfemur -12.9375 4.97463 -23.68
ltibia 47.6849
lfoot -11.8259 -6.72874
ltoes -18.4642
1699
root -1.31754 18.2754 -2.71624 -2.18262 3.17038 5.0884
lowerback 14.6687 0.662246 -7.00189
upperback 2.41665 -0.366344 -2.43552
thorax -5.63167 -0.065086 1.44519
lowerneck -11.3022 -1.16196 -8.58959
upperneck 13.0851 -1.32011 8.32664
head 5.91781 -0.438115 3.95837
rclavicle -6.95746e-015 -9.54166e-015
rhumerus -53.3006 12.3229 -90.6812
rradius 104.777
rwrist 6.64737
rhand -43.439 14.9383
rfingers 7.12502
rthumb -16.2811 -14.3982
lclavicle -6.95746e-015 -9.54166e-015
lhumerus -12.1812 -22.1545 81.1843
lradius 113.576
lwrist 16.6664
lhand -28.0389 10.1929
lfingers 7.12502
lthumb -1.42348 40.1679
rfemur -25.893 7.79338 6.26053
rtibia 68.6175
rfoot -14.2537 -18.234
rtoes -5.5158
lfemur -12.6186 4.52763 -23.3237
ltibia 46.8832
lfoot -10.7791 -6.58076
ltoes -18.3814
1700
root -1.33317 18.3748 -2.68258 -2.08143 3.28143 4.77748
lowerback 14.3602 0.542676 -6.61912
upperback 2.34169 -0.433296 -2.31221
thorax -5.53912 -0.105303 1.37404
lowerneck -11.2837 -0.94932 -8.4368
upperneck 13.291 -1.02765 8.06021
head 5.95115 -0.309322 3.87389
rclavicle -3.27995e-015 -9.54166e-015
rhumerus -54.0079 12.5619 -90.9939
rradius 104.699
rwrist 7.27029
rhand -43.1477 15.0075
rfingers 7.12502
rthumb -16.0006 -14.3517
lclavicle -3.27995e-015 -9.54166e-015
lhumerus -11.8685 -21.6943 81.7235
lradius 114.361
lwrist 17.1586
lhand -28.0259 10.4041
lfingers 7.12502
lthumb -1.41096 40.3792
rfemur -25.6067 8.09026 6.97658
rtibia 67.6743
rfoot -13.9968 -18.3507
rtoes -5.16404
lfemur -12.3066 4.12114 -22.9347
ltibia 46.0488
lfoot -9.74029 -6.51095
ltoes -18.648
1701
root -1.34706 18.4828 -2.64778 -1.9596 3.45645 4.56011
lowerback 14.1289 0.41944 -6.23901
upperback 2.17327 -0.522918 -2.23427
thorax -5.58785 -0.151555 1.25937
lowerneck -11.1413 -0.774933 -8.33844
upperneck 13.5135 -0.80113 7.8865
head 5.9757 -0.210813 3.82272
rclavicle 5.46658e-016 1.23246e-014
rhumerus -54.8535 12.7042 -91.3089
rradius 104.663
rwrist 7.84641
rhand -42.7556 15.3372
rfingers 7.12502
rthumb -15.623 -14.0519
lclavicle 5.46658e-016 1.23246e-014
lhumerus -11.8008 -21.3763 82.3917
lradius 115.14
lwrist 17.7232
lhand -28.253 10.5765
lfingers 7.12502
lthumb -1.63022 40.55
rfemur -25.2884 8.32844 7.58342
rtibia 66.6241
rfoot -13.4377 -18.4687
rtoes -5.62483
lfemur -11.9971 3.57201 -22.6604
ltibia 45.1727
lfoot -8.65167 -6.27283
ltoes -19.3124
1702
root -1.36377 18.5894 -2.61248 -1.79845 3.53576 4.28901
lowerback 13.8277 0.307456 -5.85015
upperback 2.00327 -0.59135 -2.13844
thorax -5.60115 -0.188972 1.15406
lowerneck -10.8226 -0.532645 -8.22148
upperneck 13.5084 -0.491454 7.73381
head 5.89195 -0.0716967 3.77669
rclavicle -1.05853e-014 8.34896e-015
rhumerus -55.586 12.9384 -91.6338
rradius 104.633
rwrist 8.29802
rhand -42.6836 15.4077
rfingers 7.12502
rthumb -15.5536 -13.9868
lclavicle -1.05853e-014 8.34896e-015
lhumerus -12.0282 -21.0307 83.1007
lradius 116.032
lwrist 18.2706
lhand -28.3749 10.6373
lfingers 7.12502
lthumb -1.74799 40.6098
rfemur -25.0033 8.70221 8.26115
rtibia 65.4863
rfoot -12.5738 -18.3532
rtoes -6.16646
lfemur -11.7091 3.08398 -22.3155
ltibia 44.31
lfoot -7.43057 -5.82969
ltoes -20.0939
1703
root -1.3844 18.6949 -2.57795 -1.62393 3.45918 4.04764
lowerback 13.464 0.272248 -5.59812
upperback 1.90178 -0.571227 -2.02643
thorax -5.5105 -0.18404 1.12604
lowerneck -10.5534 -0.26046 -8.11231
upperneck 13.3739 -0.145198 7.67886
head 5.7739 0.0938731 3.76358
rclavicle -6.11263e-015 2.78299e-015
rhumerus -56.0799 13.2139 -91.8652
rradius 104.61
rwrist 8.59187
rhand -42.2707 15.4253
rfingers 7.12502
rthumb -15.156 -13.9997
lclavicle -6.11263e-015 2.78299e-015
lhumerus -12.1981 -20.7176 83.7652
lradius 116.892
lwrist 18.7227
lhand -28.4369 10.6948
lfingers 7.12502
lthumb -1.80788 40.6669
rfemur -24.8073 9.25562 8.89831
rtibia 64.2808
rfoot -11.6448 -17.925
rtoes -6.78923
lfemur -11.4598 2.7868 -21.9749
ltibia 43.4726
lfoot -6.03663 -5.40429
ltoes -20.5571
1704
root -1.40574 18.7979 -2.54949 -1.47821 3.46615 3.7931
lowerback 13.1692 0.208855 -5.34551
upperback 1.85595 -0.590636 -1.88202
thorax -5.39576 -0.199438 1.13891
lowerneck -10.3961 -0.0716007 -8.0487
upperneck 13.1873 0.102471 7.64408
head 5.6679 0.213047 3.756
rclavicle -1.69961e-014 -2.70347e-014
rhumerus -56.3775 13.544 -91.9947
rradius 104.579
rwrist 8.7382
rhand -41.6185 15.5821
rfingers 7.12502
rthumb -14.5276 -13.8892
lclavicle -1.69961e-014 -2.70347e-014
lhumerus -12.3515 -20.4285 84.4667
lradius 117.692
lwrist 19.0518
lhand -28.4886 10.7566
lfingers 7.12502
lthumb -1.85782 40.7282
rfemur -24.6276 9.79112 9.52058
rtibia 63.0182
rfoot -10.7661 -17.4255
rtoes -7.58773
lfemur -11.2719 2.40396 -21.6113
ltibia 42.6509
lfoot -4.54865 -5.07041
ltoes -21.0303
1705
root -1.42904 18.8971 -2.52419 -1.36498 3.46614 3.53423
lowerback 12.8916 0.128841 -5.09544
upperback 1.85705 -0.634143 -1.75094
thorax -5.23951 -0.228152 1.14283
lowerneck -10.4191 0.0646526 -7.86903
upperneck 13.1007 0.282613 7.51111
head 5.63077 0.3007 3.69548
rclavicle -6.90777e-015 3.18055e-015
rhumerus -56.4801 13.9058 -92.1898
rradius 104.471
rwrist 8.80638
rhand -41.1845 15.9266
rfingers 7.12502
rthumb -14.1094 -13.5743
lclavicle -6.90777e-015 3.18055e-015
lhumerus -12.5763 -20.1479 85.1179
lradius 118.493
lwrist 19.1156
lhand -28.4605 10.8667
lfingers 7.12502
lthumb -1.83066 40.8385
rfemur -24.406 10.3914 10.146
rtibia 61.7292
rfoot -9.84023 -16.9232
rtoes -7.51235
lfemur -11.0607 2.05346 -21.2292
ltibia 41.7881
lfoot -3.04216 -4.75888
ltoes -21.5248
1706
root -1.45377 18.9969 -2.49004 -1.38402 3.34627 3.58008
lowerback 12.6831 0.133973 -5.15753
upperback 1.87662 -0.618559 -1.713
thorax -5.10311 -0.222458 1.21397
lowerneck -10.3888 0.178828 -7.90176
upperneck 13.0441 0.425853 7.63165
head 5.59532 0.377328 3.74897
rclavicle -3.13086e-015 -1.70955e-014
rhumerus -56.5207 14.2881 -92.4263
rradius 104.327
rwrist 8.77449
rhand -40.9685 15.7115
rfingers 7.12502
rthumb -13.9013 -13.8038
lclavicle -3.13086e-015 -1.70955e-014
lhumerus -12.9759 -19.9576 85.775
lradius 119.194
lwrist 18.9409
lhand -28.3705 10.5373
lfingers 7.12502
lthumb -1.74375 40.51
rfemur -23.9648 11.0711 10.4657
rtibia 60.4399
rfoot -8.79407 -16.1018
rtoes -7.19927
lfemur -10.6178 1.83628 -21.1864
ltibia 40.9224
lfoot -1.62178 -4.35223
ltoes -21.7123
